<svg width="29" height="29" viewBox="0 0 29 29" fill="none" xmlns="http://www.w3.org/2000/svg">
<g id="24 / time / calendar-plus">
<path id="icon" fill-rule="evenodd" clip-rule="evenodd" d="M7.25002 7.24999H9.66669V6.04166H19.3334V7.24999H21.75V6.04166H24.1667V9.66666H4.83335V6.04166H7.25002V7.24999ZM4.83335 12.0833V24.1667H24.1667V12.0833H4.83335ZM9.66669 3.62499H19.3334V2.41666H21.75V3.62499H24.1667C25.5014 3.62499 26.5834 4.70697 26.5834 6.04166V24.1667C26.5834 25.5013 25.5014 26.5833 24.1667 26.5833H4.83335C3.49867 26.5833 2.41669 25.5013 2.41669 24.1667V6.04166C2.41669 4.70697 3.49867 3.62499 4.83335 3.62499H7.25002V2.41666H9.66669V3.62499ZM9.66669 19.3333V16.9167H13.2917V13.2917H15.7084V16.9167H19.3334V19.3333H15.7084V22.9583H13.2917V19.3333H9.66669Z" fill="black"/>
</g>
</svg>
