<svg width="29" height="29" viewBox="0 0 29 29" fill="none" xmlns="http://www.w3.org/2000/svg">
<g id="24 / notifications / bell">
<path id="icon" fill-rule="evenodd" clip-rule="evenodd" d="M22.9584 12.0833C22.9584 7.17851 20.2536 3.77424 16.754 2.75225C16.6273 2.42437 16.427 2.11955 16.1548 1.86378C15.2247 0.989865 13.7754 0.989865 12.8452 1.86378C12.5736 2.11899 12.3736 2.42303 12.2469 2.75009C8.74274 3.76763 6.04169 7.16445 6.04169 12.0833C6.04169 15.266 5.40004 17.0493 4.21222 18.3417C4.01362 18.5578 3.47553 19.0528 3.11105 19.3881C2.93862 19.5467 2.80504 19.6696 2.76464 19.7103L2.41669 20.0631V24.1837H9.77299C10.0217 25.467 10.7181 26.3256 11.9773 27.094C13.5263 28.0393 15.4738 28.0393 17.0228 27.094C18.1341 26.4158 18.8792 25.3736 19.1815 24.1837H26.5834V20.0631L26.2354 19.7103C26.1988 19.6731 26.0707 19.555 25.9032 19.4005L25.9031 19.4004C25.5397 19.0652 24.9911 18.5591 24.7894 18.3388C23.6008 17.0404 22.9584 15.2548 22.9584 12.0833ZM16.5986 24.1837H12.2992C12.4699 24.5013 12.7609 24.7411 13.2361 25.0311C14.0122 25.5047 14.9879 25.5047 15.7639 25.0311C16.1233 24.8118 16.4041 24.5216 16.5986 24.1837ZM23.0069 19.9706C23.2612 20.2484 23.8061 20.7561 24.1667 21.0878V21.767H4.83335V21.0883C5.19111 20.7605 5.73771 20.2532 5.99152 19.977C7.60554 18.221 8.45835 15.8507 8.45835 12.0833C8.45835 7.51572 11.2771 4.84831 14.5 4.84831C17.7138 4.84831 20.5417 7.52949 20.5417 12.0833C20.5417 15.8386 21.3948 18.2096 23.0069 19.9706Z" fill="black"/>
</g>
</svg>
