<svg width="29" height="29" viewBox="0 0 29 29" fill="none" xmlns="http://www.w3.org/2000/svg">
<path fill-rule="evenodd" clip-rule="evenodd" d="M15.7084 22.9583V21.6643C18.1051 21.3215 20.1777 19.9739 21.4858 18.062C24.7653 17.6101 26.5834 14.7693 26.5834 10.875V7.25C26.5834 5.91531 25.5014 4.83333 24.1667 4.83333H22.635C22.2172 4.11099 21.4362 3.625 20.5417 3.625H8.45835C7.56385 3.625 6.78285 4.11099 6.36499 4.83333H4.83335C3.49867 4.83333 2.41669 5.91531 2.41669 7.25V10.875C2.41669 14.7693 4.23473 17.6101 7.51423 18.062C8.82235 19.9739 10.895 21.3215 13.2917 21.6643V22.9583H12.0834C10.7487 22.9583 9.66669 24.0403 9.66669 25.375H19.3334C19.3334 24.0403 18.2514 22.9583 16.9167 22.9583H15.7084ZM4.83335 7.25H6.04169V13.2917C6.04169 13.8448 6.09478 14.3855 6.19614 14.909C5.30494 14.1069 4.83335 12.7253 4.83335 10.875V7.25ZM22.9584 7.25V13.2917C22.9584 13.8448 22.9053 14.3855 22.8039 14.909C23.6951 14.1069 24.1667 12.7253 24.1667 10.875V7.25H22.9584ZM8.45835 13.2917V6.04167H20.5417V13.2917C20.5417 16.6284 17.8367 19.3333 14.5 19.3333C11.1633 19.3333 8.45835 16.6284 8.45835 13.2917Z" fill="black"/>
</svg>
